<?xml version="1.0" encoding="utf-8"?>
<!-- Generator: Adobe Illustrator 19.0.0, SVG Export Plug-In . SVG Version: 6.00 Build 0)  -->
<svg version="1.1" id="OBJECTS" xmlns="http://www.w3.org/2000/svg" xmlns:xlink="http://www.w3.org/1999/xlink" x="0px" y="0px"
	 viewBox="0 0 393.3 153.3" style="enable-background:new 0 0 393.3 153.3;" xml:space="preserve">
<style type="text/css">
	.st0{fill:#127CA4;}
	.st1{fill:url(#SVGID_1_);}
	.st2{fill:url(#SVGID_2_);}
</style>
<g>
	<path class="st0" d="M361.9,76.7L361.9,76.7c0,22.2-18.2,40.4-40.4,40.4H42.4V36.3h279.1C343.7,36.3,361.9,54.4,361.9,76.7z"/>
	<g>
		
			<linearGradient id="SVGID_1_" gradientUnits="userSpaceOnUse" x1="43.8886" y1="-77.1114" x2="156.3124" y2="-77.1114" gradientTransform="matrix(0 1 -1 0 3.8995 -23.4338)">
			<stop  offset="0" style="stop-color:#FFFAFF"/>
			<stop  offset="1" style="stop-color:#B3B3B3"/>
		</linearGradient>
		<path class="st1" d="M122.7,62.9L60.1,23.4c-12.1-7.6-28.6,0.3-28.6,13.7v39.5v39.5c0,13.5,16.5,21.4,28.6,13.7l62.7-39.5
			C133.2,83.8,133.2,69.6,122.7,62.9z"/>
		
			<linearGradient id="SVGID_2_" gradientUnits="userSpaceOnUse" x1="47.4523" y1="-77.1118" x2="152.7485" y2="-77.1118" gradientTransform="matrix(0 1 -1 0 3.8995 -23.4338)">
			<stop  offset="0" style="stop-color:#C9C9C9"/>
			<stop  offset="1" style="stop-color:#FFFAFF"/>
		</linearGradient>
		<path class="st2" d="M49.7,129.3c-6.9,0-14.4-5-14.4-13.2v-79C35.3,29,42.8,24,49.7,24c2.9,0,5.7,0.8,8.1,2.4l62.7,39.5
			c3.9,2.5,6.2,6.4,6.2,10.8c0,4.4-2.3,8.3-6.2,10.8L57.8,127C55.4,128.5,52.6,129.3,49.7,129.3z"/>
	</g>
	<g>
		<path class="st0" d="M115.4,77.4c-3.9,2.4-7.8,4.7-11.7,7.1c-5.9,3.6-11.9,7.1-17.8,10.7c-0.2,0.1-0.5,0.4-0.8,0.3
			c-0.4-0.2-0.2-0.6-0.2-0.9c0-5.2,0.1-10.5,0.1-15.7c0-0.8-0.2-1.3-1-1.8c-6-3.7-12.1-7.4-18.1-11c-0.1-0.1-0.3-0.2-0.5-0.3
			c-0.7-0.3-0.6-0.6,0-1.1c3.2-2.5,6.5-5,9.7-7.5c0.7-0.6,1.5-1.1,2.2-1.7c0.5-0.5,1-0.4,1.5-0.1c6,3.6,12.1,7.2,18.1,10.9
			c5.9,3.5,11.7,7,17.6,10.5c0.2,0.1,0.5,0.3,0.8,0.4C115.4,77.3,115.4,77.4,115.4,77.4z"/>
		<path class="st0" d="M46.8,36.7c1.4,1,2.9,1.8,4.3,2.6C59.1,43.9,67,48.4,74.9,53c1.1,0.6,1.1,0.8,0.2,1.5
			c-3.7,3.1-7.4,6.2-11.2,9.3c-0.6,0.5-0.9,1.1-0.9,1.9c0,6.6,0,13.3,0,19.9c0,0.2,0,0.5,0,0.7c0,0.3,0,0.6-0.3,0.8
			c-0.3,0.2-0.5-0.1-0.8-0.3c-1.4-1.1-2.7-2.3-4.1-3.4c-3.4-2.8-6.8-5.7-10.2-8.5c-0.5-0.4-0.9-0.8-0.9-1.6c0-12.2,0-24.4,0-36.5
			C46.7,36.7,46.8,36.7,46.8,36.7z"/>
		<path class="st0" d="M46.8,97.3c0-6,0-12.1,0-18.1c0-0.4-0.2-0.9,0.3-1.1c0.5-0.2,0.8,0.1,1.2,0.4c4.4,3.7,8.8,7.3,13.2,11
			c0.6,0.5,1,0.5,1.6,0.2c5.4-3,10.9-5.9,16.3-8.9c0.9-0.5,1.7-0.9,2.6-1.4c0.5-0.3,0.8-0.2,0.8,0.4c0,0.1,0,0.1,0,0.2
			c0.1,5.2,0.1,10.5,0.2,15.7c0,0.8-0.3,1.2-0.9,1.6c-8.1,4.5-16.3,9.1-24.4,13.6c-3.2,1.8-6.4,3.6-9.6,5.4
			c-1.2,0.6-1.2,0.6-1.2-0.8C46.8,109.4,46.8,103.3,46.8,97.3C46.8,97.3,46.8,97.3,46.8,97.3z"/>
	</g>
</g>
</svg>
